<svg xmlns="http://www.w3.org/2000/svg" width="1024" height="1024" viewBox="0 0 741.0 510.0">
<g fill="#000" fill-rule="evenodd" stroke="none">
<path d="M 321.0 70.0 L 349.0 73.0 L 373.0 88.0 L 384.0 88.0 L 403.0 76.0 L 421.0 77.0 L 402.0 61.0 L 385.0 53.0 L 368.0 54.0 Z M 375.0 60.0 L 381.0 61.0 L 385.0 67.0 L 379.0 76.0 L 369.0 71.0 L 369.0 65.0 Z"/>
<path d="M 0.0 463.0 L 0.0 477.0 L 140.0 470.0 L 200.0 471.0 L 255.0 476.0 L 321.0 488.0 L 334.0 500.0 L 349.0 507.0 L 365.0 510.0 L 394.0 506.0 L 421.0 487.0 L 504.0 474.0 L 630.0 471.0 L 740.0 477.0 L 739.0 460.0 L 727.0 449.0 L 685.0 386.0 L 645.0 375.0 L 573.0 368.0 L 554.0 359.0 L 593.0 346.0 L 621.0 332.0 L 587.0 332.0 L 569.0 327.0 L 629.0 325.0 L 660.0 305.0 L 643.0 309.0 L 625.0 309.0 L 594.0 304.0 L 651.0 301.0 L 668.0 297.0 L 698.0 265.0 L 669.0 267.0 L 653.0 263.0 L 694.0 258.0 L 709.0 252.0 L 718.0 234.0 L 689.0 234.0 L 713.0 227.0 L 727.0 219.0 L 740.0 180.0 L 741.0 150.0 L 738.0 138.0 L 733.0 131.0 L 664.0 182.0 L 659.0 200.0 L 655.0 188.0 L 622.0 209.0 L 605.0 247.0 L 593.0 265.0 L 606.0 219.0 L 545.0 271.0 L 536.0 289.0 L 533.0 280.0 L 526.0 306.0 L 517.0 323.0 L 524.0 289.0 L 506.0 311.0 L 491.0 343.0 L 482.0 353.0 L 438.0 369.0 L 425.0 377.0 L 410.0 418.0 L 374.0 461.0 L 433.0 427.0 L 462.0 446.0 L 410.0 461.0 L 371.0 481.0 L 346.0 453.0 L 329.0 440.0 L 301.0 426.0 L 262.0 415.0 L 217.0 410.0 L 167.0 410.0 L 87.0 422.0 L 46.0 423.0 L 41.0 421.0 L 45.0 415.0 L 80.0 415.0 L 115.0 408.0 L 83.0 411.0 L 49.0 410.0 L 63.0 389.0 L 105.0 390.0 L 191.0 378.0 L 230.0 378.0 L 273.0 385.0 L 316.0 403.0 L 340.0 420.0 L 357.0 437.0 L 367.0 452.0 L 356.0 422.0 L 334.0 397.0 L 314.0 384.0 L 290.0 374.0 L 259.0 367.0 L 224.0 364.0 L 188.0 312.0 L 160.0 282.0 L 142.0 269.0 L 115.0 259.0 L 141.0 248.0 L 158.0 248.0 L 191.0 268.0 L 247.0 323.0 L 279.0 346.0 L 303.0 357.0 L 334.0 365.0 L 365.0 367.0 L 390.0 364.0 L 466.0 343.0 L 475.0 338.0 L 483.0 329.0 L 502.0 290.0 L 518.0 275.0 L 505.0 265.0 L 460.0 243.0 L 433.0 211.0 L 420.0 188.0 L 416.0 171.0 L 418.0 148.0 L 423.0 139.0 L 445.0 129.0 L 471.0 124.0 L 528.0 125.0 L 591.0 140.0 L 622.0 153.0 L 645.0 167.0 L 647.0 164.0 L 645.0 153.0 L 632.0 133.0 L 593.0 101.0 L 537.0 74.0 L 458.0 51.0 L 433.0 26.0 L 410.0 14.0 L 359.0 2.0 L 305.0 0.0 L 269.0 5.0 L 236.0 16.0 L 213.0 28.0 L 185.0 49.0 L 153.0 83.0 L 125.0 127.0 L 101.0 186.0 L 86.0 261.0 L 65.0 289.0 L 48.0 330.0 L 41.0 364.0 L 38.0 403.0 L 30.0 405.0 L 16.0 446.0 Z M 304.0 444.0 L 307.0 444.0 Z M 253.0 445.0 L 164.0 445.0 L 46.0 454.0 L 25.0 453.0 L 32.0 441.0 L 67.0 442.0 L 142.0 437.0 L 195.0 437.0 Z M 34.0 435.0 L 39.0 427.0 L 80.0 428.0 L 158.0 419.0 L 207.0 419.0 L 268.0 428.0 L 305.0 443.0 L 255.0 433.0 L 211.0 429.0 L 153.0 429.0 L 66.0 438.0 L 35.0 438.0 Z M 595.0 386.0 L 644.0 389.0 L 673.0 398.0 L 694.0 421.0 L 714.0 452.0 L 644.0 448.0 L 642.0 430.0 L 634.0 414.0 L 620.0 401.0 Z M 458.0 374.0 L 426.0 402.0 L 425.0 387.0 L 431.0 381.0 L 446.0 375.0 Z M 432.0 411.0 L 443.0 399.0 L 469.0 381.0 L 531.0 357.0 L 590.0 398.0 L 608.0 414.0 L 613.0 427.0 L 613.0 443.0 L 611.0 446.0 L 542.0 444.0 L 488.0 448.0 L 484.0 444.0 L 488.0 438.0 L 531.0 425.0 L 535.0 421.0 L 534.0 416.0 L 474.0 433.0 L 457.0 431.0 L 454.0 424.0 L 458.0 420.0 L 512.0 394.0 L 518.0 389.0 L 517.0 384.0 L 444.0 417.0 L 435.0 417.0 Z M 451.0 316.0 L 479.0 318.0 L 469.0 331.0 L 462.0 334.0 L 455.0 329.0 Z M 268.0 316.0 L 271.0 312.0 L 300.0 319.0 L 346.0 323.0 L 352.0 341.0 L 338.0 342.0 L 302.0 335.0 L 269.0 321.0 Z M 247.0 300.0 Z M 422.0 295.0 L 427.0 309.0 L 427.0 323.0 L 424.0 329.0 L 406.0 341.0 L 373.0 346.0 L 365.0 318.0 L 396.0 310.0 Z M 417.0 281.0 L 398.0 296.0 L 375.0 304.0 L 362.0 305.0 L 356.0 291.0 L 388.0 288.0 L 413.0 274.0 Z M 64.0 376.0 L 66.0 348.0 L 77.0 308.0 L 87.0 288.0 L 103.0 273.0 L 131.0 282.0 L 149.0 294.0 L 170.0 317.0 L 195.0 361.0 L 117.0 378.0 L 76.0 379.0 Z M 472.0 264.0 L 494.0 276.0 L 494.0 285.0 L 486.0 298.0 Z M 187.0 243.0 L 196.0 243.0 L 220.0 258.0 L 240.0 281.0 L 248.0 299.0 Z M 414.0 207.0 L 459.0 267.0 L 471.0 291.0 L 474.0 307.0 L 461.0 307.0 L 450.0 299.0 L 440.0 270.0 L 416.0 219.0 Z M 412.0 206.0 L 414.0 207.0 Z M 283.0 168.0 L 329.0 264.0 L 343.0 313.0 L 323.0 311.0 L 316.0 302.0 L 286.0 197.0 Z M 717.0 165.0 L 687.0 209.0 L 635.0 258.0 L 501.0 358.0 L 494.0 356.0 L 637.0 240.0 Z M 716.0 164.0 Z M 626.0 143.0 Z M 621.0 139.0 L 627.0 142.0 Z M 257.0 86.0 L 267.0 88.0 L 264.0 129.0 L 266.0 178.0 L 275.0 231.0 L 289.0 288.0 L 289.0 305.0 L 278.0 305.0 L 271.0 301.0 L 267.0 294.0 L 250.0 216.0 L 246.0 135.0 L 250.0 99.0 Z M 234.0 84.0 L 237.0 93.0 L 226.0 157.0 L 226.0 248.0 L 208.0 231.0 L 206.0 186.0 L 215.0 115.0 L 228.0 85.0 Z M 210.0 78.0 L 213.0 84.0 L 199.0 117.0 L 189.0 157.0 L 181.0 224.0 L 178.0 230.0 L 167.0 225.0 L 163.0 218.0 L 171.0 159.0 L 188.0 107.0 L 201.0 84.0 Z M 448.0 78.0 L 454.0 71.0 L 464.0 70.0 L 499.0 76.0 L 535.0 87.0 L 581.0 108.0 L 622.0 138.0 L 571.0 111.0 L 528.0 94.0 L 499.0 86.0 Z M 191.0 66.0 L 195.0 71.0 L 172.0 105.0 L 152.0 148.0 L 141.0 186.0 L 136.0 224.0 L 115.0 234.0 L 114.0 221.0 L 118.0 199.0 L 136.0 143.0 L 163.0 95.0 L 178.0 76.0 Z M 198.0 58.0 L 212.0 52.0 L 254.0 62.0 L 283.0 59.0 L 267.0 73.0 L 248.0 75.0 L 224.0 70.0 Z M 344.0 41.0 L 397.0 41.0 L 422.0 46.0 L 446.0 57.0 L 432.0 71.0 L 427.0 84.0 L 415.0 91.0 L 424.0 107.0 L 458.0 101.0 L 501.0 104.0 L 452.0 107.0 L 430.0 112.0 L 409.0 121.0 L 372.0 146.0 L 347.0 154.0 L 323.0 155.0 L 363.0 177.0 L 372.0 185.0 L 381.0 200.0 L 393.0 238.0 L 406.0 265.0 L 388.0 276.0 L 377.0 279.0 L 359.0 277.0 L 347.0 266.0 L 339.0 243.0 L 295.0 163.0 L 281.0 121.0 L 281.0 93.0 L 291.0 69.0 L 312.0 51.0 Z M 221.0 40.0 L 250.0 25.0 L 299.0 14.0 L 359.0 16.0 L 388.0 22.0 L 410.0 31.0 L 345.0 26.0 L 315.0 30.0 L 254.0 46.0 Z"/>
</g></svg>